<svg xmlns="http://www.w3.org/2000/svg" xml:space="preserve" style="fill-rule:evenodd;clip-rule:evenodd;stroke-linecap:round;stroke-linejoin:round;stroke-miterlimit:1.5" viewBox="0 0 768 640"><path d="M761.5 405.9v102l-159.8.4v-25.6l-16-.7v-76.1h175.8Z" style="fill:#f2846b;stroke:#000;stroke-width:1.17px" transform="matrix(.4584 -.8905 0 2.0088 -180.6 -83.6)"/><path d="M408.8 114.2h7.4v171.4h-7.4z" style="fill:#f6f7f7;stroke:#000;stroke-width:1.12px" transform="matrix(.9684 .2492 -.4687 .9106 -181 -154.2)"/><path d="M270.4 285.6h7.3v161.6h-7.3z" style="fill:#f6f7f7;stroke:#000;stroke-width:.92px" transform="matrix(.9684 .2492 0 .948 -181 -130.2)"/><path d="M516.1 476.4h107.6v94.8H516.1z" style="fill:#f6f7f7;stroke:#000;stroke-width:1.13px" transform="matrix(.947 .2437 -.4693 .9118 -170 -144.1)"/><path d="M618 434.3h56.2v51.3H618z" style="stroke:#000;stroke-width:1.32px" transform="matrix(.9684 .2492 -.3071 .5967 -258.6 3.8)"/><path d="M623.7 435.6H671v50h-47.3z" style="stroke:#000;stroke-width:1.42px" transform="matrix(.9684 .2492 -.1956 .38 -306.4 96.7)"/><path d="m399.3 463-3.3 6.7h-5.7l-3.2 6.7H285.2V463h114.1Z" style="fill:#d4d5cf;stroke:#000;stroke-width:.88px" transform="rotate(14.4 490 -788.2) skewX(14.4)"/><path d="M395.3 471.3h47.5v11.8h-47.5z" style="fill:#f6f7f7;stroke:#000;stroke-width:1.12px" transform="matrix(.9505 .2446 0 .5853 -172.5 64.3)"/><path d="M382.7 485.5h56.2v6.9h-56.2z" style="fill:#f6f7f7;stroke:#000;stroke-width:.89px" transform="matrix(.9684 .2492 0 1.0057 -179.9 -136.2)"/><path d="M304.2 375.7h85.6V416h-85.6z" style="fill:#f6f7f7;stroke:#000;stroke-width:.92px" transform="matrix(.9684 .2492 0 .936 -181 -110.7)"/><path d="M505.8 407h83.6v9h-83.6z" style="fill:#f6f7f7;stroke:#000;stroke-width:1.2px" transform="matrix(.991 .255 -.3914 .7604 -224.8 -90.9)"/><path d="M844.9 567.6h29.4v40.6h-29.4z" style="fill:#d4d5cf;stroke:#000;stroke-width:.78px" transform="matrix(.214 -.4158 0 2.2192 24.9 -567.7)"/><path d="M413.2 347h14.6v87.2h-14.6z" style="fill:#d4d5cf;stroke:#000;stroke-width:.94px" transform="matrix(.829 .2134 0 1.0326 -130.5 -118.2)"/><path d="M427.8 347h28.5v95.8h-28.5z" style="fill:#d4d5cf;stroke:#000;stroke-width:.77px" transform="matrix(1.2595 .3242 0 1.0126 -314.7 -158.7)"/><path d="M644.4 474.7h7.3v18.5h-7.3z" style="fill:#f6f7f7;stroke:#000;stroke-width:1.22px" transform="matrix(.51 -.9908 0 2.0313 -215.2 -8.6)"/><path d="m276.2 459 18.4 4.8v37.7l82.9 21.3v-37.7l9.2 2.4v90l-110.5-28.4v-90" style="fill:#d4d5cf;stroke:#000;stroke-width:1px" transform="translate(-181 -147)"/><path d="M284.7 295.2h171.6v67.1H284.7z" style="fill:#d4d5cf;stroke:#000;stroke-width:.88px" transform="rotate(14.4 490 -788.2) skewX(14.4)"/><path d="M304.2 295.2h152.1v33.5H304.2z" style="fill:#f6f7f7;stroke:#000;stroke-width:.88px" transform="rotate(14.4 490 -788.2) skewX(14.4)"/><path d="M644.4 436.2h7.3v16.1h-7.3z" style="fill:#f6f7f7;stroke:#000;stroke-width:1.1px" transform="matrix(.4946 -.9609 0 2.1481 -205 -84.1)"/><path d="M463.6 321.3h152.1v7.5H463.6z" style="fill:#f6f7f7;stroke:#000;stroke-width:1.12px" transform="rotate(14.4 490 -788.2) skewX(-12.8)"/><path d="M965.6 584.6h8.2v31.7h-8.2z" style="fill:#f6f7f7;stroke:#000;stroke-width:1.03px" transform="matrix(.4577 -.8891 0 2.185 -181 -147)"/><path d="M284.7 362.3h171.6v6.7H284.7z" style="fill:#f6f7f7;stroke:#000;stroke-width:.88px" transform="rotate(14.4 464.2 -797.6) skewX(14.4)"/><path d="M460.3 362.3h171.1v6.7H460.3z" style="stroke:#000;stroke-width:1.12px" transform="matrix(.9715 .25 -.4693 .9118 -182.4 -147.4)"/><path d="M460.5 295.2v80.5l-4.8 5h-7.4l4.8-5v-80.5h7.4Z" style="fill:#f6f7f7;stroke:#000;stroke-width:.56px" transform="matrix(.9684 .2455 0 2.0962 -191.4 -462)"/><path d="M988.5 588.6V650l-5 4.2-15.6 1.3V650h6.5v-61.5h14.1Z" style="fill:#f2846b;stroke:#000;stroke-width:.91px" transform="matrix(.7171 -1.3725 0 2.7511 -444.2 -12.1)"/><path d="M435 464.1h8.3v19H435z" style="fill:#f6f7f7;stroke:#000;stroke-width:.89px" transform="matrix(.8125 .2091 0 1.1522 -110.3 -179.6)"/><path d="M677.5 448.8h58.9v22.4h-58.9z" style="stroke:#000;stroke-width:1.15px" transform="matrix(.9675 .249 -.4434 .8613 -191.8 -124.1)"/><path d="M679.1 476.4h68.3v6.7h-68.3z" style="stroke:#000;stroke-width:.64px" transform="matrix(.9573 .2464 -1.0044 1.9513 85 -647.2)"/><path d="M449.7 470h58.8v6.4h-58.8z" style="fill:#f6f7f7;stroke:#000;stroke-width:.88px" transform="matrix(.969 .2494 0 1.0326 -181 -147)"/><path d="M1076.4 718.1h8v3h-8z" style="fill:#f6f7f7;stroke:#000;stroke-width:1.03px" transform="matrix(.4577 -.8891 0 2.185 -181 -147)"/><path d="M445 483.1h68.4v6.7H445z" style="fill:#f6f7f7;stroke:#000;stroke-width:.89px" transform="matrix(.9552 .2458 0 1.0326 -175.1 -145.5)"/><path d="M1084.4 728h14.7v3.2h-14.7z" style="stroke:#000;stroke-width:1.03px" transform="matrix(.4577 -.8891 0 2.185 -181 -147)"/><path d="M791.3 463v19.8h-271V472h-7V463h278Z" style="fill:#d4d5cf;stroke:#000;stroke-width:1.01px" transform="matrix(1.062 .2733 0 .6498 -230 17.6)"/><path d="M304.2 375.7h85.6V416h-85.6z" style="fill:#f6f7f7;stroke:#000;stroke-width:1.19px" transform="matrix(-.9684 -.2492 0 .936 702 116.6)"/><path d="M413.2 347h14.6v87.2h-14.6z" style="fill:#d4d5cf;stroke:#000;stroke-width:.89px" transform="matrix(-1.4591 -.3755 0 1.0236 919 155)"/><path d="M1044.1 658h15.7v38.8h-15.7z" style="fill:#d4d5cf;stroke:#000;stroke-width:.8px" transform="matrix(.2227 -.4327 0 2.185 58.8 -625)"/><path d="M427.8 347h28.5v95.8h-28.5z" style="fill:#d4d5cf;stroke:#000;stroke-width:1.09px" transform="matrix(-1.0663 -.2744 0 1.0126 747.5 114.7)"/><path d="M721.7 403.9h85.6v8.3h-85.6z" style="fill:#f6f7f7;stroke:#000;stroke-width:1.18px" transform="matrix(.9684 .2492 -.4226 .821 -200.3 -109.3)"/><path d="M1105.7 687.1h7.3v16.8h-7.3z" style="fill:#f6f7f7;stroke:#000;stroke-width:1.04px" transform="matrix(.464 -.9015 0 2.185 -188.4 -132.5)"/><path d="m276.2 459 18.4 4.8v37.7l82.9 21.3v-37.7l9.2 2.4v90l-120.3-30.9-.3-52.1 10.1 2.6v-38" style="fill:#d4d5cf;stroke:#000;stroke-width:1.27px" transform="matrix(-1 -.5147 0 1 702 80.2)"/><path d="M304.2 295.2h152.1v33.5H304.2z" style="fill:#f6f7f7;stroke:#000;stroke-width:.88px" transform="rotate(14.4 413.7 -186.2) skewX(14.4)"/><path d="M644.4 436.2h7.3v16.1h-7.3z" style="fill:#f6f7f7;stroke:#000;stroke-width:1.1px" transform="matrix(.4946 -.9609 0 2.1481 -57.4 -46.1)"/><path d="M463.6 321.3h152.1v7.5H463.6z" style="fill:#f6f7f7;stroke:#000;stroke-width:1.12px" transform="rotate(14.4 413.7 -186.2) skewX(-12.8)"/><path d="M456.3 295.2v67.1H284.7v-67 33.5h151.8v-33.6h19.8Z" style="fill:#d4d5cf;stroke:#000;stroke-width:.88px" transform="rotate(14.4 404 -109.2) skewX(14.4)"/><path d="M284.7 362.3h171.6v6.7H284.7z" style="fill:#f6f7f7;stroke:#000;stroke-width:.88px" transform="rotate(14.4 378.3 -118.5) skewX(14.4)"/><path d="M460.3 362.3h171.1v6.7H460.3z" style="stroke:#000;stroke-width:1.12px" transform="matrix(.9715 .25 -.4693 .9118 -15.9 -104.5)"/><path d="M456.3 82.1h57v46.4h-57z" style="stroke:#000;stroke-width:1.24px" transform="matrix(.8717 .2243 -.4224 .8207 -142.9 -124)"/><path d="M944.6 495.1h40.8v2.7h-40.8z" style="fill:#f6f7f7;stroke:#000;stroke-width:.78px" transform="matrix(.481 -.9343 0 2.6916 -204 -353.3)"/><path d="M944.6 497.8h40.8V520h-40.8z" style="fill:#f2846b;stroke:#000;stroke-width:1.08px" transform="matrix(.4577 -.8891 0 2.1223 -181 -114.4)"/><path d="M416.2 114.2h344.4v167H416.2z" style="stroke:#000;stroke-width:1.16px" transform="matrix(.9663 .2487 -.4414 .8575 -183.3 -125.8)"/><path d="M284.7 285.6h342.8v9.6H284.7z" style="fill:#f6f7f7;stroke:#000;stroke-width:.88px" transform="matrix(.9708 .2499 0 1.0326 -181.7 -147.2)"/><path d="M1508.4 805.4h146.4v34.9h-146.4z" style="fill:#f2846b;stroke:#000;stroke-width:1.48px" transform="matrix(.4733 -.9194 0 1.7476 -204.5 266.3)"/><path d="M1508.4 808.5h151.4v3.2h-151.4z" style="fill:#f6f7f7;stroke:#000;stroke-width:.93px" transform="matrix(.4577 -.8891 0 2.3338 -181 -266.4)"/><path d="M777.4 93.3h52.2v147.1h-52.2z" style="stroke:#000;stroke-width:1.13px" transform="matrix(.9512 .2448 -.471 .9152 -166.6 -143.6)"/><path d="M761.5 405.9v102H601l-.5-26h-14.6v-76h175.7Z" style="fill:#f2846b;stroke:#000;stroke-width:1.17px" transform="matrix(.4584 -.8905 0 2.0088 160.4 4.2)"/><path d="M408.8 114.2h7.4v171.4h-7.4z" style="fill:#f6f7f7;stroke:#000;stroke-width:1.12px" transform="matrix(.9684 .2492 -.4687 .9106 160 -66.5)"/><path d="M270.4 285.6h7.3v161.6h-7.3z" style="fill:#f6f7f7;stroke:#000;stroke-width:.92px" transform="matrix(.9684 .2492 0 .948 160 -42.4)"/><path d="M751.1 475.4h237.7v95.8H751.1z" style="fill:#f6f7f7;stroke:#000;stroke-width:1.12px" transform="matrix(.971 .25 -.4693 .9118 -183.6 -147.7)"/><path d="M861.3 307h79.9v155.9h-79.9z" style="stroke:#000;stroke-width:.62px" transform="matrix(2.1852 .5624 -.472 .9169 -1227.9 -419.1)"/><path d="M861.7 159.5h51v146.7h-51z" style="stroke:#000;stroke-width:1.12px" transform="rotate(14.4 490 -788.2) skewX(-12.8)"/><path d="M1508.4 805.4h146.4v34.9h-146.4z" style="fill:#f2846b;stroke:#000;stroke-width:1.1px" transform="matrix(.2476 -.481 0 1.7476 219.2 -447.6)"/><path d="M758.6 247h6.1v59h-6.1z" style="fill:#f6f7f7;stroke:#000;stroke-width:.8px" transform="matrix(1.159 .2983 0 1.0326 -293.7 -248.7)"/><path d="M877.1 99.4h7.3v147.7h-7.3z" style="fill:#f6f7f7;stroke:#000;stroke-width:1.38px" transform="matrix(.9684 .2492 -.2455 .477 -203.2 -103.8)"/><path d="M629.8 285.9h137.9v9.3H629.8z" style="fill:#f6f7f7;stroke:#000;stroke-width:.73px" transform="matrix(1.319 .3395 0 1.0665 -394.9 -213.1)"/><path d="M768.2 278.5h137.7v7.1H768.2z" style="fill:#f6f7f7;stroke:#000;stroke-width:.93px" transform="matrix(1.321 .34 -.4693 .9118 -444.9 -216)"/><path d="M1624.5 883.6h7.3v4.5h-7.3z" style="fill:#f6f7f7;stroke:#000;stroke-width:1.03px" transform="matrix(.4577 -.8891 0 2.185 -125.7 -133.8)"/><path d="M629.8 285.9h137.9v9.3H629.8z" style="fill:#f6f7f7;stroke:#000;stroke-width:.73px" transform="matrix(1.319 .3395 0 1.0665 -394.9 -126.5)"/><path d="M768.2 278.5h137.7v7.1H768.2z" style="fill:#f6f7f7;stroke:#000;stroke-width:.93px" transform="matrix(1.321 .34 -.4693 .9118 -444.9 -129.4)"/><path d="M1624.5 883.6h7.3v4.5h-7.3z" style="fill:#f6f7f7;stroke:#000;stroke-width:1.03px" transform="matrix(.4577 -.8891 0 2.185 -125.7 -47.2)"/><path d="M629.8 285.9h137.9v9.3H629.8z" style="fill:#f6f7f7;stroke:#000;stroke-width:.73px" transform="matrix(1.319 .3395 0 1.0665 -328.1 -256.7)"/><path d="M768.2 278.5h137.7v7.1H768.2z" style="fill:#f6f7f7;stroke:#000;stroke-width:.93px" transform="matrix(1.321 .34 -.4693 .9118 -378.1 -259.6)"/><path d="M1624.5 883.6h7.3v4.5h-7.3z" style="fill:#f6f7f7;stroke:#000;stroke-width:1.03px" transform="matrix(.4577 -.8891 0 2.185 -59 -177.4)"/><path d="M629.8 285.9h137.9v9.3H629.8z" style="fill:#f6f7f7;stroke:#000;stroke-width:.73px" transform="matrix(1.319 .3395 0 1.0665 -328.1 -346.3)"/><path d="M768.2 278.5h137.7v7.1H768.2z" style="fill:#f6f7f7;stroke:#000;stroke-width:.93px" transform="matrix(1.321 .34 -.4693 .9118 -378.1 -349.1)"/><path d="M1624.5 883.6h7.3v4.5h-7.3z" style="fill:#f6f7f7;stroke:#000;stroke-width:1.03px" transform="matrix(.4577 -.8891 0 2.185 -59 -267)"/><path d="M408.8 114.2h7.4v171.4h-7.4z" style="fill:#f6f7f7;stroke:#000;stroke-width:1.14px" transform="matrix(.9684 .2492 -.4513 .8767 336.3 -25)"/><path d="M270.4 285.6h7.3v161.6h-7.3z" style="fill:#f6f7f7;stroke:#000;stroke-width:.92px" transform="matrix(.9684 .2492 0 .948 341.5 -10.8)"/><path d="M1713.4 921.2h175.7v94.5h-175.7z" style="fill:#f2846b;stroke:#000;stroke-width:1.02px" transform="matrix(.4408 -.8563 0 2.173 -144.8 -205)"/></svg>